<svg width="20" height="20" viewBox="0 0 20 20" fill="none" xmlns="http://www.w3.org/2000/svg">
<path d="M8.5 3C11.5376 3 14 5.46243 14 8.5C14 9.83879 13.5217 11.0739 12.7266 12.0273L16.7803 16.0811C17.0732 16.3739 17.0732 16.8488 16.7803 17.1417C16.4874 17.4346 16.0126 17.4346 15.7197 17.1417L11.6659 13.088C10.7125 13.8831 9.47741 14.3614 8.13862 14.3614C5.10101 14.3614 2.63858 11.899 2.63858 8.86135C2.63858 5.82373 5.10101 3.3613 8.13862 3.3613H8.5V3ZM8.5 4.5H8.13862C5.92945 4.5 4.13858 6.29087 4.13858 8.5C4.13858 10.7091 5.92945 12.5 8.13862 12.5C10.3478 12.5 12.1386 10.7091 12.1386 8.5C12.1386 6.29087 10.3478 4.5 8.13862 4.5H8.5Z" fill="black"/>
<rect x="0.5" y="0.5" width="19" height="19" rx="1.5" stroke="black" fill="none"/>
</svg>

