<svg id="Outline" xmlns="http://www.w3.org/2000/svg" viewBox="0 0 150 100"><defs><style>.cls-1{fill:#fff;}.cls-2{fill:#e0e0e0;}.cls-3{fill:none;}.cls-4{fill:#f4f4f4;}.cls-5{fill:#9182bd;}.cls-6{fill:#e6e2f0;}.cls-7{fill:#ddeedb;}.cls-8{fill:#fc0;}.cls-9{fill:#6e6e6e;}.cls-10{fill:#57a6d9;}.cls-11{fill:#a9a9a9;}</style></defs><rect class="cls-1" x="37" y="1" width="112" height="97"/><path class="cls-2" d="M148,2V97H38V2H148m1-1H37V98H149V1Z"/><rect class="cls-1" y="25" width="149" height="73"/><path class="cls-2" d="M148,26V97H1V26H148m1-1H0V98H149V25Z"/><rect class="cls-3" width="150" height="100"/><path class="cls-2" d="M148,50V73H1V50H148m1-1H0V74H149V49Z"/><path class="cls-2" d="M111,2V97H75V2h36m1-1H74V98h38V1Z"/><rect class="cls-4" x="3" y="51" width="32" height="21"/><rect class="cls-4" x="3" y="75" width="32" height="21"/><rect class="cls-5" x="10" y="54" width="1" height="15"/><rect class="cls-6" x="6" y="77" width="9" height="17"/><path class="cls-5" d="M14,78V93H7V78h7m1-1H6V94h9V77Z"/><rect class="cls-4" x="40" y="75" width="32" height="21"/><rect class="cls-7" x="38" y="80" width="19" height="11" rx="1" transform="translate(133 38) rotate(90)"/><path class="cls-8" d="M52,77V94H43V77h9m0-1H43a.99943.99943,0,0,0-1,1V94a.99943.99943,0,0,0,1,1h9a.99943.99943,0,0,0,1-1V77a.99943.99943,0,0,0-1-1Z"/><rect class="cls-6" x="43" y="77" width="9" height="17"/><path class="cls-5" d="M51,78V93H44V78h7m1-1H43V94h9V77Z"/><rect class="cls-4" x="77" y="75" width="32" height="21"/><rect class="cls-4" x="114" y="75" width="32" height="21"/><rect class="cls-7" x="75" y="80" width="19" height="11" rx="1" transform="translate(170 1) rotate(90)"/><path class="cls-8" d="M89,77V94H80V77h9m0-1H80a.99943.99943,0,0,0-1,1V94a.99943.99943,0,0,0,1,1h9a.99943.99943,0,0,0,1-1V77a.99943.99943,0,0,0-1-1Z"/><rect class="cls-6" x="80" y="77" width="9" height="17"/><path class="cls-5" d="M88,78V93H81V78h7m1-1H80V94h9V77Z"/><rect class="cls-7" x="112" y="80" width="19" height="11" rx="1" transform="translate(207 -36) rotate(90)"/><path class="cls-8" d="M126,77V94h-9V77h9m0-1h-9a.99943.99943,0,0,0-1,1V94a.99943.99943,0,0,0,1,1h9a.99943.99943,0,0,0,1-1V77a.99943.99943,0,0,0-1-1Z"/><rect class="cls-6" x="117" y="77" width="9" height="17"/><path class="cls-5" d="M125,78V93h-7V78h7m1-1h-9V94h9V77Z"/><rect class="cls-4" x="40" y="51" width="32" height="21"/><circle class="cls-7" cx="47.5" cy="59.5" r="2.5"/><path class="cls-8" d="M47.5,58A1.5,1.5,0,1,1,46,59.5,1.5017,1.5017,0,0,1,47.5,58m0-1A2.5,2.5,0,1,0,50,59.5,2.5,2.5,0,0,0,47.5,57Z"/><rect class="cls-7" x="39" y="60" width="17" height="3" rx="1" transform="translate(109 14) rotate(90)"/><path class="cls-8" d="M48,54V69H47V54h1m0-1H47a.99943.99943,0,0,0-1,1V69a.99943.99943,0,0,0,1,1h1a.99943.99943,0,0,0,1-1V54a.99943.99943,0,0,0-1-1Z"/><rect class="cls-5" x="47" y="54" width="1" height="15"/><rect class="cls-4" x="77" y="51" width="32" height="21"/><rect class="cls-7" x="76" y="60" width="17" height="3" rx="1" transform="translate(146 -23) rotate(90)"/><path class="cls-8" d="M85,54V69H84V54h1m0-1H84a.99943.99943,0,0,0-1,1V69a.99943.99943,0,0,0,1,1h1a.99943.99943,0,0,0,1-1V54a.99943.99943,0,0,0-1-1Z"/><rect class="cls-5" x="84" y="54" width="1" height="15"/><rect class="cls-4" x="3" y="27" width="32" height="21"/><circle class="cls-6" cx="10.5" cy="35.5" r="1.5"/><path class="cls-5" d="M10.5,35a.5.5,0,1,1-.5.5.50057.50057,0,0,1,.5-.5m0-1A1.5,1.5,0,1,0,12,35.5,1.5,1.5,0,0,0,10.5,34Z"/><rect class="cls-1" x="10" y="35" width="1" height="1"/><polygon class="cls-9" points="107 16 96 16 96 17 107 17 107 16 107 16"/><rect class="cls-10" x="84" y="8" width="1" height="10.5" transform="translate(169 26.5) rotate(180)"/><polygon class="cls-9" points="85 8 84 8 84 18.5 85 18.5 85 8 85 8"/><polygon class="cls-9" points="107 88 96 88 96 89 107 89 107 88 107 88"/><rect class="cls-10" x="84" y="80" width="1" height="10.5" transform="translate(169 170.5) rotate(180)"/><polygon class="cls-9" points="85 80 84 80 84 90.5 85 90.5 85 80 85 80"/><polygon class="cls-9" points="107 64 96 64 96 65 107 65 107 64 107 64"/><rect class="cls-10" x="84" y="56" width="1" height="10.5" transform="translate(169 122.5) rotate(180)"/><polygon class="cls-9" points="85 56 84 56 84 66.5 85 66.5 85 56 85 56"/><rect class="cls-4" x="132.5" y="79.5" width="10" height="11" transform="translate(52.5 222.5) rotate(-90)"/><path class="cls-9" d="M142,81v8h-9V81h9m1-1H132V90h11V80Z"/><rect class="cls-4" x="117.5" y="83.5" width="8" height="5" transform="translate(35.5 207.5) rotate(-90)"/><path class="cls-9" d="M123,83v6h-3V83h3m1-1h-5v8h5V82Z"/><rect class="cls-4" x="132.5" y="7.5" width="10" height="11" transform="translate(124.5 150.5) rotate(-90)"/><path class="cls-9" d="M142,9v8h-9V9h9m1-1H132V18h11V8Z"/><rect class="cls-4" x="117.5" y="11.5" width="8" height="5" transform="translate(107.5 135.5) rotate(-90)"/><path class="cls-9" d="M123,11v6h-3V11h3m1-1h-5v8h5V10Z"/><rect class="cls-4" x="40" y="27" width="32" height="21"/><circle class="cls-4" cx="47.5" cy="11.5" r="1.5"/><path class="cls-9" d="M47.5,11a.5.5,0,1,1-.5.5.50057.50057,0,0,1,.5-.5m0-1A1.5,1.5,0,1,0,49,11.5,1.5,1.5,0,0,0,47.5,10Z"/><rect class="cls-1" x="47" y="11" width="1" height="1"/><circle class="cls-4" cx="65.5" cy="15.5" r="1.5"/><path class="cls-9" d="M65.5,15a.5.5,0,1,1-.5.5.50057.50057,0,0,1,.5-.5m0-1A1.5,1.5,0,1,0,67,15.5,1.5,1.5,0,0,0,65.5,14Z"/><rect class="cls-1" x="65" y="15" width="1" height="1"/><circle class="cls-4" cx="65.5" cy="39.5" r="1.5"/><path class="cls-9" d="M65.5,39a.5.5,0,1,1-.5.5.50057.50057,0,0,1,.5-.5m0-1A1.5,1.5,0,1,0,67,39.5,1.5,1.5,0,0,0,65.5,38Z"/><rect class="cls-1" x="65" y="39" width="1" height="1"/><circle class="cls-4" cx="65.5" cy="63.5" r="1.5"/><path class="cls-9" d="M65.5,63a.5.5,0,1,1-.5.5.50057.50057,0,0,1,.5-.5m0-1A1.5,1.5,0,1,0,67,63.5,1.5,1.5,0,0,0,65.5,62Z"/><rect class="cls-1" x="65" y="63" width="1" height="1"/><circle class="cls-7" cx="47.5" cy="35.5" r="2.5"/><path class="cls-8" d="M47.5,34A1.5,1.5,0,1,1,46,35.5,1.5017,1.5017,0,0,1,47.5,34m0-1A2.5,2.5,0,1,0,50,35.5,2.5,2.5,0,0,0,47.5,33Z"/><circle class="cls-4" cx="47.5" cy="83.5" r="1.5"/><path class="cls-9" d="M47.5,83a.5.5,0,1,1-.5.5.50057.50057,0,0,1,.5-.5m0-1A1.5,1.5,0,1,0,49,83.5,1.5,1.5,0,0,0,47.5,82Z"/><rect class="cls-1" x="47" y="83" width="1" height="1"/><circle class="cls-4" cx="65.5" cy="87.5" r="1.5"/><path class="cls-9" d="M65.5,87a.5.5,0,1,1-.5.5.50057.50057,0,0,1,.5-.5m0-1A1.5,1.5,0,1,0,67,87.5,1.5,1.5,0,0,0,65.5,86Z"/><rect class="cls-1" x="65" y="87" width="1" height="1"/><circle class="cls-6" cx="47.5" cy="35.5" r="1.5"/><path class="cls-5" d="M47.5,35a.5.5,0,1,1-.5.5.50057.50057,0,0,1,.5-.5m0-1A1.5,1.5,0,1,0,49,35.5,1.5,1.5,0,0,0,47.5,34Z"/><rect class="cls-1" x="47" y="35" width="1" height="1"/><circle class="cls-4" cx="47.5" cy="59.5" r="1.5"/><path class="cls-9" d="M47.5,59a.5.5,0,1,1-.5.5.50057.50057,0,0,1,.5-.5m0-1A1.5,1.5,0,1,0,49,59.5,1.5,1.5,0,0,0,47.5,58Z"/><rect class="cls-1" x="47" y="59" width="1" height="1"/><rect class="cls-2" x="111.00029" y="6.08917" width="0.99943" height="86.82166" transform="translate(9.52115 116.45382) rotate(-57.22539)"/><rect class="cls-2" x="129.50015" y="16.13993" width="0.9997" height="42.71989" transform="translate(28.40925 126.86184) rotate(-57.42649)"/><path class="cls-11" d="M148,26V97H38V26H148m1-1H37V98H149V25Z"/></svg>