<svg id="Outline" xmlns="http://www.w3.org/2000/svg" viewBox="0 0 150 100"><defs><style>.cls-1{fill:#fff;}.cls-2{fill:#e0e0e0;}.cls-3{fill:none;}.cls-4{fill:#f4f4f4;}.cls-5{fill:#9182bd;}.cls-6{fill:#e6e2f0;}.cls-7{fill:#ddeedb;}.cls-8{fill:#fc0;}.cls-9{fill:#6e6e6e;}.cls-10{fill:#57a6d9;}.cls-11{fill:#a9a9a9;}</style></defs><rect class="cls-1" x="37" y="1" width="112" height="97"/><path class="cls-2" d="M148,2V97H38V2H148m1-1H37V98H149V1Z"/><rect class="cls-1" y="25" width="149" height="73"/><path class="cls-2" d="M148,26V97H1V26H148m1-1H0V98H149V25Z"/><rect class="cls-3" width="150" height="100"/><path class="cls-2" d="M148,50V73H1V50H148m1-1H0V74H149V49Z"/><path class="cls-2" d="M111,2V97H75V2h36m1-1H74V98h38V1Z"/><rect class="cls-4" x="3" y="51" width="32" height="21"/><rect class="cls-4" x="3" y="75" width="32" height="21"/><rect class="cls-5" x="11" y="54" width="1" height="15"/><rect class="cls-6" x="7" y="77" width="9" height="17"/><path class="cls-5" d="M15,78V93H8V78h7m1-1H7V94h9V77Z"/><rect class="cls-4" x="40" y="75" width="32" height="21"/><rect class="cls-7" x="39" y="80" width="19" height="11" rx="1" transform="translate(134 37) rotate(90)"/><path class="cls-8" d="M53,77V94H44V77h9m0-1H44a.99943.99943,0,0,0-1,1V94a.99943.99943,0,0,0,1,1h9a.99943.99943,0,0,0,1-1V77a.99943.99943,0,0,0-1-1Z"/><rect class="cls-6" x="44" y="77" width="9" height="17"/><path class="cls-5" d="M52,78V93H45V78h7m1-1H44V94h9V77Z"/><rect class="cls-4" x="77" y="75" width="32" height="21"/><rect class="cls-4" x="114" y="75" width="32" height="21"/><rect class="cls-7" x="84.5" y="75.5" width="3" height="16" rx="1" transform="translate(169.5 -2.5) rotate(90)"/><path class="cls-8" d="M93,83v1H79V83H93m0-1H79a.99943.99943,0,0,0-1,1v1a.99943.99943,0,0,0,1,1H93a.99943.99943,0,0,0,1-1V83a.99943.99943,0,0,0-1-1Z"/><rect class="cls-7" x="76" y="80" width="19" height="11" rx="1" transform="translate(171) rotate(90)"/><path class="cls-8" d="M90,77V94H81V77h9m0-1H81a.99943.99943,0,0,0-1,1V94a.99943.99943,0,0,0,1,1h9a.99943.99943,0,0,0,1-1V77a.99943.99943,0,0,0-1-1Z"/><rect class="cls-7" x="116.5" y="76.5" width="13" height="16" rx="1" transform="translate(207.5 -38.5) rotate(90)"/><path class="cls-8" d="M130,79V90H116V79h14m0-1H116a.99943.99943,0,0,0-1,1V90a.99943.99943,0,0,0,1,1h14a.99943.99943,0,0,0,1-1V79a.99943.99943,0,0,0-1-1Z"/><rect class="cls-7" x="113" y="80" width="19" height="11" rx="1" transform="translate(208 -37) rotate(90)"/><path class="cls-8" d="M127,77V94h-9V77h9m0-1h-9a.99943.99943,0,0,0-1,1V94a.99943.99943,0,0,0,1,1h9a.99943.99943,0,0,0,1-1V77a.99943.99943,0,0,0-1-1Z"/><rect class="cls-4" x="40" y="51" width="32" height="21"/><circle class="cls-7" cx="48.5" cy="59.5" r="2.5"/><path class="cls-8" d="M48.5,58A1.5,1.5,0,1,1,47,59.5,1.50171,1.50171,0,0,1,48.5,58m0-1A2.5,2.5,0,1,0,51,59.5,2.5,2.5,0,0,0,48.5,57Z"/><rect class="cls-7" x="40" y="60" width="17" height="3" rx="1" transform="translate(110 13) rotate(90)"/><path class="cls-8" d="M49,54V69H48V54h1m0-1H48a.99943.99943,0,0,0-1,1V69a.99943.99943,0,0,0,1,1h1a.99943.99943,0,0,0,1-1V54a.99943.99943,0,0,0-1-1Z"/><rect class="cls-5" x="48" y="54" width="1" height="15"/><rect class="cls-4" x="77" y="51" width="32" height="21"/><rect class="cls-7" x="84.5" y="51.5" width="3" height="16" rx="1" transform="translate(145.5 -26.5) rotate(90)"/><path class="cls-8" d="M93,59v1H79V59H93m0-1H79a.99943.99943,0,0,0-1,1v1a.99943.99943,0,0,0,1,1H93a.99943.99943,0,0,0,1-1V59a.99943.99943,0,0,0-1-1Z"/><rect class="cls-7" x="77" y="60" width="17" height="3" rx="1" transform="translate(147 -24) rotate(90)"/><path class="cls-8" d="M86,54V69H85V54h1m0-1H85a.99943.99943,0,0,0-1,1V69a.99943.99943,0,0,0,1,1h1a.99943.99943,0,0,0,1-1V54a.99943.99943,0,0,0-1-1Z"/><rect class="cls-5" x="85" y="54" width="1" height="15"/><rect class="cls-4" x="3" y="27" width="32" height="21"/><circle class="cls-6" cx="11.5" cy="35.5" r="1.5"/><path class="cls-5" d="M11.5,35a.5.5,0,1,1-.5.5.50057.50057,0,0,1,.5-.5m0-1A1.5,1.5,0,1,0,13,35.5,1.5,1.5,0,0,0,11.5,34Z"/><rect class="cls-1" x="11" y="35" width="1" height="1"/><rect class="cls-4" x="77" y="27" width="32" height="21"/><polygon class="cls-9" points="107 40 96 40 96 41 107 41 107 40 107 40"/><circle class="cls-7" cx="85.5" cy="35.5" r="2.5"/><path class="cls-8" d="M85.5,34A1.5,1.5,0,1,1,84,35.5,1.50171,1.50171,0,0,1,85.5,34m0-1A2.5,2.5,0,1,0,88,35.5,2.5,2.5,0,0,0,85.5,33Z"/><rect class="cls-7" x="84.5" y="27.5" width="3" height="16" rx="1" transform="translate(121.5 -50.5) rotate(90)"/><path class="cls-8" d="M93,35v1H79V35H93m0-1H79a.99974.99974,0,0,0-1,1v1a.99974.99974,0,0,0,1,1H93a.99974.99974,0,0,0,1-1V35a.99974.99974,0,0,0-1-1Z"/><rect class="cls-10" x="85.5" y="28.5" width="1" height="14" transform="translate(50.5 121.5) rotate(-90)"/><polygon class="cls-9" points="93 35 79 35 79 36 93 36 93 35 93 35"/><rect class="cls-4" x="114" y="51" width="32" height="21"/><polygon class="cls-9" points="107 16 96 16 96 17 107 17 107 16 107 16"/><rect class="cls-10" x="85.5" y="4.5" width="1" height="14" transform="translate(74.5 97.5) rotate(-90)"/><polygon class="cls-9" points="93 11 79 11 79 12 93 12 93 11 93 11"/><polygon class="cls-9" points="107 64 96 64 96 65 107 65 107 64 107 64"/><rect class="cls-10" x="85.5" y="52.5" width="1" height="14" transform="translate(26.5 145.5) rotate(-90)"/><polygon class="cls-9" points="93 59 79 59 79 60 93 60 93 59 93 59"/><polygon class="cls-9" points="107 88 96 88 96 89 107 89 107 88 107 88"/><rect class="cls-4" x="136.5" y="10.5" width="6" height="9" transform="translate(124.5 154.5) rotate(-90)"/><path class="cls-9" d="M143,13v4h-7V13h7m1-1h-9v6h9V12Z"/><rect class="cls-4" x="117.5" y="5.5" width="11" height="14" transform="translate(110.5 135.5) rotate(-90)"/><path class="cls-9" d="M129,8v9H117V8h12m1-1H116V18h14V7Z"/><rect class="cls-4" x="114" y="27" width="32" height="21"/><rect class="cls-4" x="136.5" y="34.5" width="6" height="9" transform="translate(100.5 178.5) rotate(-90)"/><path class="cls-9" d="M143,37v4h-7V37h7m1-1h-9v6h9V36Z"/><rect class="cls-7" x="116.5" y="28.5" width="13" height="16" rx="1" transform="translate(159.5 -86.5) rotate(90)"/><path class="cls-8" d="M130,31V42H116V31h14m0-1H116a.99974.99974,0,0,0-1,1V42a.99974.99974,0,0,0,1,1h14a.99974.99974,0,0,0,1-1V31a.99974.99974,0,0,0-1-1Z"/><rect class="cls-4" x="117.5" y="29.5" width="11" height="14" transform="translate(86.5 159.5) rotate(-90)"/><path class="cls-9" d="M129,32v9H117V32h12m1-1H116V42h14V31Z"/><rect class="cls-4" x="136.5" y="58.5" width="6" height="9" transform="translate(76.5 202.5) rotate(-90)"/><path class="cls-9" d="M143,61v4h-7V61h7m1-1h-9v6h9V60Z"/><rect class="cls-7" x="114" y="60" width="17" height="3" rx="1" transform="translate(184 -61) rotate(90)"/><path class="cls-8" d="M123,54V69h-1V54h1m0-1h-1a.99943.99943,0,0,0-1,1V69a.99943.99943,0,0,0,1,1h1a.99943.99943,0,0,0,1-1V54a.99943.99943,0,0,0-1-1Z"/><rect class="cls-7" x="116.5" y="52.5" width="13" height="16" rx="1" transform="translate(183.5 -62.5) rotate(90)"/><path class="cls-8" d="M130,55V66H116V55h14m0-1H116a.99943.99943,0,0,0-1,1V66a.99943.99943,0,0,0,1,1h14a.99943.99943,0,0,0,1-1V55a.99943.99943,0,0,0-1-1Z"/><rect class="cls-4" x="117.5" y="53.5" width="11" height="14" transform="translate(62.5 183.5) rotate(-90)"/><path class="cls-9" d="M129,56v9H117V56h12m1-1H116V66h14V55Z"/><rect class="cls-4" x="136.5" y="82.5" width="6" height="9" transform="translate(52.5 226.5) rotate(-90)"/><path class="cls-9" d="M143,85v4h-7V85h7m1-1h-9v6h9V84Z"/><rect class="cls-4" x="117.5" y="77.5" width="11" height="14" transform="translate(38.5 207.5) rotate(-90)"/><path class="cls-9" d="M129,80v9H117V80h12m1-1H116V90h14V79Z"/><rect class="cls-2" x="37" y="18" width="1" height="80.16667"/><rect class="cls-4" x="40" y="27" width="32" height="21"/><circle class="cls-4" cx="48.5" cy="11.5" r="1.5"/><path class="cls-9" d="M48.5,11a.5.5,0,1,1-.5.5.50057.50057,0,0,1,.5-.5m0-1A1.5,1.5,0,1,0,50,11.5,1.5,1.5,0,0,0,48.5,10Z"/><rect class="cls-1" x="48" y="11" width="1" height="1"/><circle class="cls-4" cx="65.5" cy="15.5" r="1.5"/><path class="cls-9" d="M65.5,15a.5.5,0,1,1-.5.5.50057.50057,0,0,1,.5-.5m0-1A1.5,1.5,0,1,0,67,15.5,1.5,1.5,0,0,0,65.5,14Z"/><rect class="cls-1" x="65" y="15" width="1" height="1"/><circle class="cls-4" cx="65.5" cy="39.5" r="1.5"/><path class="cls-9" d="M65.5,39a.5.5,0,1,1-.5.5.50057.50057,0,0,1,.5-.5m0-1A1.5,1.5,0,1,0,67,39.5,1.5,1.5,0,0,0,65.5,38Z"/><rect class="cls-1" x="65" y="39" width="1" height="1"/><circle class="cls-4" cx="65.5" cy="63.5" r="1.5"/><path class="cls-9" d="M65.5,63a.5.5,0,1,1-.5.5.50057.50057,0,0,1,.5-.5m0-1A1.5,1.5,0,1,0,67,63.5,1.5,1.5,0,0,0,65.5,62Z"/><rect class="cls-1" x="65" y="63" width="1" height="1"/><circle class="cls-7" cx="48.5" cy="35.5" r="2.5"/><path class="cls-8" d="M48.5,34A1.5,1.5,0,1,1,47,35.5,1.50171,1.50171,0,0,1,48.5,34m0-1A2.5,2.5,0,1,0,51,35.5,2.5,2.5,0,0,0,48.5,33Z"/><circle class="cls-4" cx="48.5" cy="83.5" r="1.5"/><path class="cls-9" d="M48.5,83a.5.5,0,1,1-.5.5.50057.50057,0,0,1,.5-.5m0-1A1.5,1.5,0,1,0,50,83.5,1.5,1.5,0,0,0,48.5,82Z"/><rect class="cls-1" x="48" y="83" width="1" height="1"/><circle class="cls-4" cx="65.5" cy="87.5" r="1.5"/><path class="cls-9" d="M65.5,87a.5.5,0,1,1-.5.5.50057.50057,0,0,1,.5-.5m0-1A1.5,1.5,0,1,0,67,87.5,1.5,1.5,0,0,0,65.5,86Z"/><rect class="cls-1" x="65" y="87" width="1" height="1"/><rect class="cls-5" x="122" y="54" width="1" height="15"/><circle class="cls-6" cx="48.5" cy="35.5" r="1.5"/><path class="cls-5" d="M48.5,35a.5.5,0,1,1-.5.5.50057.50057,0,0,1,.5-.5m0-1A1.5,1.5,0,1,0,50,35.5,1.5,1.5,0,0,0,48.5,34Z"/><rect class="cls-1" x="48" y="35" width="1" height="1"/><circle class="cls-6" cx="85.5" cy="35.5" r="1.5"/><path class="cls-5" d="M85.5,35a.5.5,0,1,1-.5.5.50057.50057,0,0,1,.5-.5m0-1A1.5,1.5,0,1,0,87,35.5,1.5,1.5,0,0,0,85.5,34Z"/><rect class="cls-1" x="85" y="35" width="1" height="1"/><circle class="cls-7" cx="122.5" cy="35.5" r="2.5"/><path class="cls-8" d="M122.5,34a1.5,1.5,0,1,1-1.5,1.5,1.50171,1.50171,0,0,1,1.5-1.5m0-1a2.5,2.5,0,1,0,2.5,2.5,2.50263,2.50263,0,0,0-2.5-2.5Z"/><rect class="cls-7" x="121" y="34" width="3" height="3" rx="1" transform="translate(158 -87) rotate(90)"/><path class="cls-8" d="M123,35v1h-1V35h1m0-1h-1a.99974.99974,0,0,0-1,1v1a.99974.99974,0,0,0,1,1h1a.99974.99974,0,0,0,1-1V35a.99974.99974,0,0,0-1-1Z"/><circle class="cls-6" cx="122.5" cy="35.5" r="1.5"/><path class="cls-5" d="M122.5,35a.5.5,0,1,1-.5.5.50057.50057,0,0,1,.5-.5m0-1a1.5,1.5,0,1,0,1.5,1.5,1.5,1.5,0,0,0-1.5-1.5Z"/><rect class="cls-1" x="122" y="35" width="1" height="1"/><circle class="cls-4" cx="48.5" cy="59.5" r="1.5"/><path class="cls-9" d="M48.5,59a.5.5,0,1,1-.5.5.50057.50057,0,0,1,.5-.5m0-1A1.5,1.5,0,1,0,50,59.5,1.5,1.5,0,0,0,48.5,58Z"/><rect class="cls-1" x="48" y="59" width="1" height="1"/><path class="cls-11" d="M148,26V97H38V26H148m1-1H37V98H149V25Z"/><rect class="cls-6" x="118" y="77" width="9" height="17"/><path class="cls-5" d="M126,78V93h-7V78h7m1-1h-9V94h9V77Z"/><rect class="cls-6" x="81" y="77" width="9" height="17"/><path class="cls-5" d="M89,78V93H82V78h7m1-1H81V94h9V77Z"/><rect class="cls-10" x="85.5" y="76.5" width="1" height="14" transform="translate(2.5 169.5) rotate(-90)"/><polygon class="cls-9" points="93 83 79 83 79 84 93 84 93 83 93 83"/></svg>