<svg id="Outline" xmlns="http://www.w3.org/2000/svg" viewBox="0 0 150 100"><defs><style>.cls-1{fill:#fff;}.cls-2{fill:#e0e0e0;}.cls-3{fill:none;}.cls-4{fill:#f4f4f4;}.cls-5{fill:#9182bd;}.cls-6{fill:#e6e2f0;}.cls-7{fill:#ddeedb;}.cls-8{fill:#fc0;}.cls-9{fill:#6e6e6e;}.cls-10{fill:#57a6d9;}.cls-11{fill:#a9a9a9;}</style></defs><rect class="cls-1" x="37" y="1" width="112" height="97"/><path class="cls-2" d="M148,2V97H38V2H148m1-1H37V98H149V1Z"/><rect class="cls-1" y="25" width="149" height="73"/><path class="cls-2" d="M148,26V97H1V26H148m1-1H0V98H149V25Z"/><rect class="cls-3" width="150" height="100"/><path class="cls-2" d="M148,50V73H1V50H148m1-1H0V74H149V49Z"/><path class="cls-2" d="M111,2V97H75V2h36m1-1H74V98h38V1Z"/><rect class="cls-4" x="3" y="51" width="32" height="21"/><rect class="cls-4" x="3" y="75" width="32" height="21"/><rect class="cls-5" x="10" y="54" width="1" height="15"/><rect class="cls-6" x="7" y="77" width="9" height="17"/><path class="cls-5" d="M15,78V93H8V78h7m1-1H7V94h9V77Z"/><rect class="cls-4" x="114" y="75" width="32" height="21"/><rect class="cls-7" x="116.5" y="76.5" width="13" height="16" rx="1" transform="translate(207.5 -38.5) rotate(90)"/><path class="cls-8" d="M130,79V90H116V79h14m0-1H116a.99943.99943,0,0,0-1,1V90a.99943.99943,0,0,0,1,1h14a.99943.99943,0,0,0,1-1V79a.99943.99943,0,0,0-1-1Z"/><rect class="cls-7" x="113" y="80" width="19" height="11" rx="1" transform="translate(208 -37) rotate(90)"/><path class="cls-8" d="M127,77V94h-9V77h9m0-1h-9a.99943.99943,0,0,0-1,1V94a.99943.99943,0,0,0,1,1h9a.99943.99943,0,0,0,1-1V77a.99943.99943,0,0,0-1-1Z"/><rect class="cls-4" x="77" y="51" width="32" height="21"/><rect class="cls-7" x="83.5" y="51.5" width="3" height="16" rx="1" transform="translate(144.5 -25.5) rotate(90)"/><path class="cls-8" d="M92,59v1H78V59H92m0-1H78a.99943.99943,0,0,0-1,1v1a.99943.99943,0,0,0,1,1H92a.99943.99943,0,0,0,1-1V59a.99943.99943,0,0,0-1-1Z"/><rect class="cls-7" x="76" y="60" width="17" height="3" rx="1" transform="translate(146 -23) rotate(90)"/><path class="cls-8" d="M85,54V69H84V54h1m0-1H84a.99943.99943,0,0,0-1,1V69a.99943.99943,0,0,0,1,1h1a.99943.99943,0,0,0,1-1V54a.99943.99943,0,0,0-1-1Z"/><rect class="cls-4" x="3" y="27" width="32" height="21"/><circle class="cls-6" cx="10.5" cy="35.5" r="1.5"/><path class="cls-5" d="M10.5,35a.5.5,0,1,1-.5.5.50057.50057,0,0,1,.5-.5m0-1A1.5,1.5,0,1,0,12,35.5,1.5,1.5,0,0,0,10.5,34Z"/><rect class="cls-1" x="10" y="35" width="1" height="1"/><polygon class="cls-9" points="107 16 96 16 96 17 107 17 107 16 107 16"/><rect class="cls-10" x="84.5" y="4.5" width="1" height="14" transform="translate(73.5 96.5) rotate(-90)"/><polygon class="cls-9" points="92 11 78 11 78 12 92 12 92 11 92 11"/><polygon class="cls-9" points="107 64 96 64 96 65 107 65 107 64 107 64"/><rect class="cls-10" x="84.5" y="52.5" width="1" height="14" transform="translate(25.5 144.5) rotate(-90)"/><polygon class="cls-9" points="92 59 78 59 78 60 92 60 92 59 92 59"/><rect class="cls-4" x="135.5" y="10.5" width="6" height="9" transform="translate(123.5 153.5) rotate(-90)"/><path class="cls-9" d="M142,13v4h-7V13h7m1-1h-9v6h9V12Z"/><rect class="cls-4" x="117.5" y="5.5" width="11" height="14" transform="translate(110.5 135.5) rotate(-90)"/><path class="cls-9" d="M129,8v9H117V8h12m1-1H116V18h14V7Z"/><rect class="cls-4" x="135.5" y="82.5" width="6" height="9" transform="translate(51.5 225.5) rotate(-90)"/><path class="cls-9" d="M142,85v4h-7V85h7m1-1h-9v6h9V84Z"/><rect class="cls-4" x="117.5" y="77.5" width="11" height="14" transform="translate(38.5 207.5) rotate(-90)"/><path class="cls-9" d="M129,80v9H117V80h12m1-1H116V90h14V79Z"/><rect class="cls-4" x="40" y="27" width="32" height="21"/><circle class="cls-4" cx="47.5" cy="11.5" r="1.5"/><path class="cls-9" d="M47.5,11a.5.5,0,1,1-.5.5.50057.50057,0,0,1,.5-.5m0-1A1.5,1.5,0,1,0,49,11.5,1.5,1.5,0,0,0,47.5,10Z"/><rect class="cls-1" x="47" y="11" width="1" height="1"/><circle class="cls-4" cx="65.5" cy="15.5" r="1.5"/><path class="cls-9" d="M65.5,15a.5.5,0,1,1-.5.5.50057.50057,0,0,1,.5-.5m0-1A1.5,1.5,0,1,0,67,15.5,1.5,1.5,0,0,0,65.5,14Z"/><rect class="cls-1" x="65" y="15" width="1" height="1"/><circle class="cls-4" cx="65.5" cy="39.5" r="1.5"/><path class="cls-9" d="M65.5,39a.5.5,0,1,1-.5.5.50057.50057,0,0,1,.5-.5m0-1A1.5,1.5,0,1,0,67,39.5,1.5,1.5,0,0,0,65.5,38Z"/><rect class="cls-1" x="65" y="39" width="1" height="1"/><circle class="cls-7" cx="47.5" cy="35.5" r="2.5"/><path class="cls-8" d="M47.5,34A1.5,1.5,0,1,1,46,35.5,1.50171,1.50171,0,0,1,47.5,34m0-1A2.5,2.5,0,1,0,50,35.5,2.5,2.5,0,0,0,47.5,33Z"/><circle class="cls-6" cx="47.5" cy="35.5" r="1.5"/><path class="cls-5" d="M47.5,35a.5.5,0,1,1-.5.5.50057.50057,0,0,1,.5-.5m0-1A1.5,1.5,0,1,0,49,35.5,1.5,1.5,0,0,0,47.5,34Z"/><rect class="cls-1" x="47" y="35" width="1" height="1"/><rect class="cls-2" x="111.00029" y="6.08917" width="0.99943" height="86.82166" transform="translate(9.52115 116.45382) rotate(-57.22539)"/><rect class="cls-2" x="74.00049" y="30.08917" width="0.99902" height="86.82166" transform="translate(-27.6289 96.35144) rotate(-57.22512)"/><rect class="cls-2" x="129.49989" y="16.13993" width="1.00022" height="42.71989" transform="translate(28.40925 126.86184) rotate(-57.42649)"/><polygon class="cls-2" points="73.73 97.421 37.73 74.421 38.27 73.579 74.27 96.579 73.73 97.421"/><path class="cls-11" d="M148,26V97H38V26H148m1-1H37V98H149V25Z"/><rect class="cls-6" x="118" y="77" width="9" height="17"/><path class="cls-5" d="M126,78V93h-7V78h7m1-1h-9V94h9V77Z"/><rect class="cls-5" x="84" y="54" width="1" height="15"/></svg>