<svg id="Outline" xmlns="http://www.w3.org/2000/svg" viewBox="0 0 150 100"><defs><style>.cls-1{fill:#fff;}.cls-2{fill:#e0e0e0;}.cls-3{fill:#f4f4f4;}.cls-4{fill:none;}.cls-5{fill:#6e6e6e;}.cls-6{fill:#ddeedb;}.cls-7{fill:#fc0;}.cls-8{fill:#a9a9a9;}.cls-9{fill:#e6e2f0;}.cls-10{fill:#9182bd;}</style></defs><rect class="cls-1" x="37" y="1" width="112" height="97"/><path class="cls-2" d="M148,2V97H38V2H148m1-1H37V98H149V1Z"/><rect class="cls-1" y="25" width="149" height="73"/><path class="cls-2" d="M148,26V97H1V26H148m1-1H0V98H149V25Z"/><rect class="cls-3" x="77" y="27" width="32" height="21"/><rect class="cls-3" x="77" y="75" width="32" height="21"/><rect class="cls-3" x="114" y="75" width="32" height="21"/><rect class="cls-3" x="40" y="75" width="32" height="21"/><rect class="cls-3" x="40" y="51" width="32" height="21"/><rect class="cls-3" x="77" y="51" width="32" height="21"/><rect class="cls-3" x="3" y="75" width="32" height="21"/><rect class="cls-3" x="3" y="51" width="32" height="21"/><rect class="cls-4" width="150" height="100"/><path class="cls-2" d="M148,50V73H1V50H148m1-1H0V74H149V49Z"/><path class="cls-2" d="M111,2V97H75V2h36m1-1H74V98h38V1Z"/><polygon class="cls-5" points="107 40 96 40 96 41 107 41 107 40 107 40"/><polygon class="cls-5" points="107 64 96 64 96 65 107 65 107 64 107 64"/><rect class="cls-3" x="114" y="27" width="32" height="21"/><rect class="cls-3" x="135.5" y="34.5" width="6" height="9" transform="translate(99.5 177.5) rotate(-90)"/><path class="cls-5" d="M142,37v4h-7V37h7m1-1h-9v6h9V36Z"/><rect class="cls-2" x="55.49989" y="16.13993" width="1.00022" height="42.71989" transform="translate(-5.75055 64.50193) rotate(-57.42649)"/><rect class="cls-3" x="114" y="51" width="32" height="21"/><rect class="cls-3" x="135.5" y="58.5" width="6" height="9" transform="translate(75.5 201.5) rotate(-90)"/><path class="cls-5" d="M142,61v4h-7V61h7m1-1h-9v6h9V60Z"/><circle class="cls-3" cx="65.5" cy="63.5" r="1.5"/><path class="cls-5" d="M65.5,63a.5.5,0,1,1-.5.5.50057.50057,0,0,1,.5-.5m0-1A1.5,1.5,0,1,0,67,63.5,1.5,1.5,0,0,0,65.5,62Z"/><rect class="cls-1" x="65" y="63" width="1" height="1"/><polygon class="cls-5" points="107 88 96 88 96 89 107 89 107 88 107 88"/><rect class="cls-3" x="135.5" y="82.5" width="6" height="9" transform="translate(51.5 225.5) rotate(-90)"/><path class="cls-5" d="M142,85v4h-7V85h7m1-1h-9v6h9V84Z"/><circle class="cls-3" cx="65.5" cy="87.5" r="1.5"/><path class="cls-5" d="M65.5,87a.5.5,0,1,1-.5.5.50057.50057,0,0,1,.5-.5m0-1A1.5,1.5,0,1,0,67,87.5,1.5,1.5,0,0,0,65.5,86Z"/><rect class="cls-1" x="65" y="87" width="1" height="1"/><rect class="cls-6" x="75" y="81" width="17" height="9" rx="1" transform="translate(169 2) rotate(90)"/><path class="cls-7" d="M87,78V93H80V78h7m0-1H80a1,1,0,0,0-1,1V93a1,1,0,0,0,1,1h7a1,1,0,0,0,1-1V78a1,1,0,0,0-1-1Z"/><path class="cls-8" d="M148,26V97H38V26H148m1-1H37V98H149V25Z"/><circle class="cls-6" cx="49.5" cy="78.5" r="2.5"/><path class="cls-7" d="M49.5,77A1.5,1.5,0,1,1,48,78.5,1.50171,1.50171,0,0,1,49.5,77m0-1A2.5,2.5,0,1,0,52,78.5,2.50231,2.50231,0,0,0,49.5,76Z"/><rect class="cls-6" x="42.5" y="60.5" width="14" height="3" rx="1" transform="translate(111.5 12.5) rotate(90)"/><path class="cls-7" d="M50,56V68H49V56h1m0-1H49a1,1,0,0,0-1,1V68a1,1,0,0,0,1,1h1a1,1,0,0,0,1-1V56a1,1,0,0,0-1-1Z"/><rect class="cls-6" x="84.5" y="48.5" width="3" height="12" rx="1" transform="translate(140.5 -31.5) rotate(90)"/><path class="cls-7" d="M91,54v1H81V54H91m0-1H81a1,1,0,0,0-1,1v1a1,1,0,0,0,1,1H91a1,1,0,0,0,1-1V54a1,1,0,0,0-1-1Z"/><polygon class="cls-5" points="91 54 81 54 81 55 91 55 91 54 91 54"/><polygon class="cls-5" points="91 6 81 6 81 7 91 7 91 6 91 6"/><circle class="cls-6" cx="92.5" cy="30.5" r="2.5"/><path class="cls-7" d="M92.5,29A1.5,1.5,0,1,1,91,30.5,1.50171,1.50171,0,0,1,92.5,29m0-1A2.5,2.5,0,1,0,95,30.5,2.50263,2.50263,0,0,0,92.5,28Z"/><rect class="cls-6" x="85.5" y="23.5" width="3" height="14" rx="1" transform="translate(117.5 -56.5) rotate(90)"/><path class="cls-7" d="M93,30v1H81V30H93m0-1H81a1,1,0,0,0-1,1v1a1,1,0,0,0,1,1H93a1,1,0,0,0,1-1V30a1,1,0,0,0-1-1Z"/><polygon class="cls-5" points="92 30 81 30 81 31 92 31 92 30 92 30"/><rect class="cls-6" x="84.5" y="72.5" width="3" height="12" rx="1" transform="translate(164.5 -7.5) rotate(90)"/><path class="cls-7" d="M91,78v1H81V78H91m0-1H81a1,1,0,0,0-1,1v1a1,1,0,0,0,1,1H91a1,1,0,0,0,1-1V78a1,1,0,0,0-1-1Z"/><rect class="cls-6" x="38" y="81" width="17" height="9" rx="1" transform="translate(132 39) rotate(90)"/><path class="cls-7" d="M50,78V93H43V78h7m0-1H43a1,1,0,0,0-1,1V93a1,1,0,0,0,1,1h7a1,1,0,0,0,1-1V78a1,1,0,0,0-1-1Z"/><rect class="cls-9" x="43" y="78" width="7" height="15"/><path class="cls-10" d="M49,79V92H44V79h5m1-1H43V93h7V78Z"/><rect class="cls-6" x="122" y="77" width="9" height="9" rx="1" transform="translate(208 -45) rotate(90)"/><path class="cls-7" d="M130,78v7h-7V78h7m0-1h-7a1,1,0,0,0-1,1v7a1,1,0,0,0,1,1h7a1,1,0,0,0,1-1V78a1,1,0,0,0-1-1Z"/><rect class="cls-6" x="112" y="81" width="17" height="9" rx="1" transform="translate(206 -35) rotate(90)"/><path class="cls-7" d="M124,78V93h-7V78h7m0-1h-7a1,1,0,0,0-1,1V93a1,1,0,0,0,1,1h7a1,1,0,0,0,1-1V78a1,1,0,0,0-1-1Z"/><circle class="cls-3" cx="49.5" cy="78.5" r="1.5"/><path class="cls-5" d="M49.5,78a.5.5,0,1,1-.5.5.50057.50057,0,0,1,.5-.5m0-1A1.5,1.5,0,1,0,51,78.5,1.5,1.5,0,0,0,49.5,77Z"/><rect class="cls-1" x="49" y="78" width="1" height="1"/><circle class="cls-6" cx="49.5" cy="54.5" r="2.5"/><path class="cls-7" d="M49.5,53A1.5,1.5,0,1,1,48,54.5,1.50171,1.50171,0,0,1,49.5,53m0-1A2.5,2.5,0,1,0,52,54.5,2.50231,2.50231,0,0,0,49.5,52Z"/><rect class="cls-10" x="49" y="55" width="1" height="13"/><rect class="cls-6" x="79.5" y="60.5" width="14" height="3" rx="1" transform="translate(148.5 -24.5) rotate(90)"/><path class="cls-7" d="M87,56V68H86V56h1m0-1H86a1,1,0,0,0-1,1V68a1,1,0,0,0,1,1h1a1,1,0,0,0,1-1V56a1,1,0,0,0-1-1Z"/><rect class="cls-10" x="86" y="55" width="1" height="13"/><rect class="cls-6" x="116" y="60" width="15" height="3" rx="1" transform="translate(185 -62) rotate(90)"/><path class="cls-7" d="M124,55V68h-1V55h1m0-1h-1a1,1,0,0,0-1,1V68a1,1,0,0,0,1,1h1a1,1,0,0,0,1-1V55a1,1,0,0,0-1-1Z"/><circle class="cls-3" cx="49.5" cy="54.5" r="1.5"/><path class="cls-5" d="M49.5,54a.5.5,0,1,1-.5.5.50057.50057,0,0,1,.5-.5m0-1A1.5,1.5,0,1,0,51,54.5,1.5,1.5,0,0,0,49.5,53Z"/><rect class="cls-1" x="49" y="54" width="1" height="1"/><circle class="cls-6" cx="129.5" cy="30.5" r="2.5"/><path class="cls-7" d="M129.5,29a1.5,1.5,0,1,1-1.5,1.5,1.50171,1.50171,0,0,1,1.5-1.5m0-1a2.5,2.5,0,1,0,2.5,2.5,2.50263,2.50263,0,0,0-2.5-2.5Z"/><rect class="cls-6" x="122" y="29" width="9" height="9" rx="1" transform="translate(160 -93) rotate(90)"/><path class="cls-7" d="M130,30v7h-7V30h7m0-1h-7a1,1,0,0,0-1,1v7a1,1,0,0,0,1,1h7a1,1,0,0,0,1-1V30a1,1,0,0,0-1-1Z"/><rect class="cls-3" x="123" y="30" width="7" height="7" transform="translate(93 160) rotate(-90)"/><path class="cls-5" d="M129,31v5h-5V31h5m1-1h-7v7h7V30Z"/><rect class="cls-6" x="122" y="53" width="9" height="9" rx="1" transform="translate(184 -69) rotate(90)"/><path class="cls-7" d="M130,54v7h-7V54h7m0-1h-7a1,1,0,0,0-1,1v7a1,1,0,0,0,1,1h7a1,1,0,0,0,1-1V54a1,1,0,0,0-1-1Z"/><rect class="cls-3" x="123" y="78" width="7" height="7" transform="translate(45 208) rotate(-90)"/><path class="cls-5" d="M129,79v5h-5V79h5m1-1h-7v7h7V78Z"/><circle class="cls-9" cx="92.5" cy="30.5" r="1.5"/><path class="cls-10" d="M92.5,30a.5.5,0,1,1-.5.5.50057.50057,0,0,1,.5-.5m0-1A1.5,1.5,0,1,0,94,30.5,1.5,1.5,0,0,0,92.5,29Z"/><rect class="cls-3" x="3" y="27" width="32" height="21"/><circle class="cls-9" cx="18.5" cy="30.5" r="1.5"/><path class="cls-10" d="M18.5,30a.5.5,0,1,1-.5.5.50057.50057,0,0,1,.5-.5m0-1A1.5,1.5,0,1,0,20,30.5,1.5,1.5,0,0,0,18.5,29Z"/><circle class="cls-9" cx="129.5" cy="30.5" r="1.5"/><path class="cls-10" d="M129.5,30a.5.5,0,1,1-.5.5.50057.50057,0,0,1,.5-.5m0-1a1.5,1.5,0,1,0,1.5,1.5,1.5,1.5,0,0,0-1.5-1.5Z"/><rect class="cls-9" x="6" y="78" width="7" height="15"/><path class="cls-10" d="M12,79V92H7V79h5m1-1H6V93h7V78Z"/><rect class="cls-10" x="12" y="55" width="1" height="13"/><polygon class="cls-5" points="107 16 96 16 96 17 107 17 107 16 107 16"/><rect class="cls-3" x="135.5" y="10.5" width="6" height="9" transform="translate(123.5 153.5) rotate(-90)"/><path class="cls-5" d="M142,13v4h-7V13h7m1-1h-9v6h9V12Z"/><circle class="cls-3" cx="65.5" cy="15.5" r="1.5"/><path class="cls-5" d="M65.5,15a.5.5,0,1,1-.5.5.50057.50057,0,0,1,.5-.5m0-1A1.5,1.5,0,1,0,67,15.5,1.5,1.5,0,0,0,65.5,14Z"/><rect class="cls-1" x="65" y="15" width="1" height="1"/><circle class="cls-3" cx="49.5" cy="6.5" r="1.5"/><path class="cls-5" d="M49.5,6a.5.5,0,1,1-.5.5.50057.50057,0,0,1,.5-.5m0-1A1.5,1.5,0,1,0,51,6.5,1.5,1.5,0,0,0,49.5,5Z"/><rect class="cls-1" x="49" y="6" width="1" height="1"/><rect class="cls-3" x="123" y="6" width="7" height="7" transform="translate(117 136) rotate(-90)"/><path class="cls-5" d="M129,7v5h-5V7h5m1-1h-7v7h7V6Z"/><polygon class="cls-5" points="91 78 81 78 81 79 91 79 91 78 91 78"/><rect class="cls-3" x="123" y="54" width="7" height="7" transform="translate(69 184) rotate(-90)"/><path class="cls-5" d="M129,55v5h-5V55h5m1-1h-7v7h7V54Z"/><rect class="cls-9" x="80" y="78" width="7" height="15"/><path class="cls-10" d="M86,79V92H81V79h5m1-1H80V93h7V78Z"/><rect class="cls-9" x="117" y="78" width="7" height="15"/><path class="cls-10" d="M123,79V92h-5V79h5m1-1h-7V93h7V78Z"/><rect class="cls-10" x="123" y="55" width="1" height="13"/></svg>