<svg id="Outline" xmlns="http://www.w3.org/2000/svg" viewBox="0 0 150 100"><defs><style>.cls-1{fill:#fff;}.cls-2{fill:#e0e0e0;}.cls-3{fill:none;}.cls-4{fill:#f4f4f4;}.cls-5{fill:#6e6e6e;}.cls-6{fill:#e6e2f0;}.cls-7{fill:#9182bd;}.cls-8{fill:#ddeedb;}.cls-9{fill:#fc0;}.cls-10{fill:#a9a9a9;}</style></defs><rect class="cls-1" x="37" y="1" width="112" height="97"/><path class="cls-2" d="M148,2V97H38V2H148m1-1H37V98H149V1Z"/><rect class="cls-1" y="25" width="149" height="73"/><path class="cls-2" d="M148,26V97H1V26H148m1-1H0V98H149V25Z"/><rect class="cls-3" width="150" height="100"/><path class="cls-2" d="M148,50V73H1V50H148m1-1H0V74H149V49Z"/><path class="cls-2" d="M111,2V97H75V2h36m1-1H74V98h38V1Z"/><rect class="cls-4" x="3" y="51" width="32" height="21"/><rect class="cls-4" x="3" y="75" width="32" height="21"/><rect class="cls-4" x="77" y="51" width="32" height="21"/><rect class="cls-4" x="114" y="51" width="32" height="21"/><polygon class="cls-5" points="85.031 53 83.969 53 83.969 70 85.031 70 85.031 53 85.031 53"/><rect class="cls-4" x="3" y="27" width="32" height="21"/><circle class="cls-6" cx="10.5" cy="35.5" r="1.5"/><path class="cls-7" d="M10.5,35a.5.5,0,1,1-.5.5.50057.50057,0,0,1,.5-.5m0-1A1.5,1.5,0,1,0,12,35.5,1.5,1.5,0,0,0,10.5,34Z"/><rect class="cls-1" x="10" y="35" width="1" height="1"/><polygon class="cls-5" points="107 64 96 64 96 65 107 65 107 64 107 64"/><rect class="cls-4" x="77" y="27" width="32" height="21"/><polygon class="cls-5" points="85.031 29 83.969 29 83.969 46 85.031 46 85.031 29 85.031 29"/><polygon class="cls-5" points="107 40 96 40 96 41 107 41 107 40 107 40"/><polygon class="cls-5" points="85.031 5 83.969 5 83.969 22 85.031 22 85.031 5 85.031 5"/><polygon class="cls-5" points="107 16 96 16 96 17 107 17 107 16 107 16"/><rect class="cls-4" x="136.5" y="61.5" width="6" height="9" transform="translate(73.5 205.5) rotate(-90)"/><path class="cls-5" d="M143,64v4h-7V64h7m1-1h-9v6h9V63Z"/><circle class="cls-4" cx="47.5" cy="11.5" r="1.5"/><path class="cls-5" d="M47.5,11a.5.5,0,1,1-.5.5.50057.50057,0,0,1,.5-.5m0-1A1.5,1.5,0,1,0,49,11.5,1.5,1.5,0,0,0,47.5,10Z"/><rect class="cls-1" x="47" y="11" width="1" height="1"/><circle class="cls-4" cx="65.5" cy="15.5" r="1.5"/><path class="cls-5" d="M65.5,15a.5.5,0,1,1-.5.5.50057.50057,0,0,1,.5-.5m0-1A1.5,1.5,0,1,0,67,15.5,1.5,1.5,0,0,0,65.5,14Z"/><rect class="cls-1" x="65" y="15" width="1" height="1"/><circle class="cls-4" cx="65.5" cy="39.5" r="1.5"/><path class="cls-5" d="M65.5,39a.5.5,0,1,1-.5.5.50057.50057,0,0,1,.5-.5m0-1A1.5,1.5,0,1,0,67,39.5,1.5,1.5,0,0,0,65.5,38Z"/><rect class="cls-1" x="65" y="39" width="1" height="1"/><circle class="cls-8" cx="84.5" cy="35.5" r="2.5"/><path class="cls-9" d="M84.5,34A1.5,1.5,0,1,1,83,35.5,1.50171,1.50171,0,0,1,84.5,34m0-1A2.5,2.5,0,1,0,87,35.5,2.5,2.5,0,0,0,84.5,33Z"/><circle class="cls-6" cx="84.5" cy="35.5" r="1.5"/><path class="cls-7" d="M84.5,35a.5.5,0,1,1-.5.5.50057.50057,0,0,1,.5-.5m0-1A1.5,1.5,0,1,0,86,35.5,1.5,1.5,0,0,0,84.5,34Z"/><rect class="cls-1" x="84" y="35" width="1" height="1"/><rect class="cls-4" x="40" y="27" width="32" height="21"/><circle class="cls-8" cx="47.5" cy="35.5" r="2.5"/><path class="cls-9" d="M47.5,34A1.5,1.5,0,1,1,46,35.5,1.50171,1.50171,0,0,1,47.5,34m0-1A2.5,2.5,0,1,0,50,35.5,2.5,2.5,0,0,0,47.5,33Z"/><circle class="cls-6" cx="47.5" cy="35.5" r="1.5"/><path class="cls-7" d="M47.5,35a.5.5,0,1,1-.5.5.50057.50057,0,0,1,.5-.5m0-1A1.5,1.5,0,1,0,49,35.5,1.5,1.5,0,0,0,47.5,34Z"/><rect class="cls-1" x="47" y="35" width="1" height="1"/><rect class="cls-2" x="74.00049" y="30.08917" width="0.99902" height="86.82166" transform="translate(-27.6289 96.35144) rotate(-57.22512)"/><polygon class="cls-2" points="73.73 97.421 37.73 74.421 38.27 73.579 74.27 96.579 73.73 97.421"/><rect class="cls-8" x="78.5" y="59.5" width="12" height="3" rx="1" transform="translate(145.5 -23.5) rotate(90)"/><path class="cls-9" d="M85,56V66H84V56h1m0-1H84a.99943.99943,0,0,0-1,1V66a.99943.99943,0,0,0,1,1h1a.99943.99943,0,0,0,1-1V56a.99943.99943,0,0,0-1-1Z"/><rect class="cls-7" x="84" y="56" width="1" height="10"/><rect class="cls-7" x="10" y="56" width="1" height="10"/><rect class="cls-4" x="115" y="53" width="14" height="16"/><path class="cls-5" d="M128,54V68H116V54h12m1-1H115V69h14V53Z"/><rect class="cls-8" x="115.5" y="59.5" width="12" height="3" rx="1" transform="translate(182.5 -60.5) rotate(90)"/><path class="cls-9" d="M122,56V66h-1V56h1m0-1h-1a.99943.99943,0,0,0-1,1V66a.99943.99943,0,0,0,1,1h1a.99943.99943,0,0,0,1-1V56a.99943.99943,0,0,0-1-1Z"/><rect class="cls-7" x="121" y="56" width="1" height="10"/><rect class="cls-4" x="114" y="75" width="32" height="21"/><rect class="cls-4" x="136.5" y="85.5" width="6" height="9" transform="translate(49.5 229.5) rotate(-90)"/><path class="cls-5" d="M143,88v4h-7V88h7m1-1h-9v6h9V87Z"/><rect class="cls-4" x="115" y="77" width="14" height="16"/><path class="cls-5" d="M128,78V92H116V78h12m1-1H115V93h14V77Z"/><rect class="cls-4" x="114" y="27" width="32" height="21"/><rect class="cls-4" x="136.5" y="37.5" width="6" height="9" transform="translate(97.5 181.5) rotate(-90)"/><path class="cls-5" d="M143,40v4h-7V40h7m1-1h-9v6h9V39Z"/><rect class="cls-4" x="115" y="29" width="14" height="16"/><path class="cls-5" d="M128,30V44H116V30h12m1-1H115V45h14V29Z"/><rect class="cls-4" x="136.5" y="13.5" width="6" height="9" transform="translate(121.5 157.5) rotate(-90)"/><path class="cls-5" d="M143,16v4h-7V16h7m1-1h-9v6h9V15Z"/><rect class="cls-4" x="115" y="5" width="14" height="16"/><path class="cls-5" d="M128,6V20H116V6h12m1-1H115V21h14V5Z"/><circle class="cls-8" cx="121.5" cy="35.5" r="2.5"/><path class="cls-9" d="M121.5,34a1.5,1.5,0,1,1-1.5,1.5,1.50171,1.50171,0,0,1,1.5-1.5m0-1a2.5,2.5,0,1,0,2.5,2.5,2.5,2.5,0,0,0-2.5-2.5Z"/><circle class="cls-6" cx="121.5" cy="35.5" r="1.5"/><path class="cls-7" d="M121.5,35a.5.5,0,1,1-.5.5.50057.50057,0,0,1,.5-.5m0-1a1.5,1.5,0,1,0,1.5,1.5,1.5,1.5,0,0,0-1.5-1.5Z"/><rect class="cls-1" x="121" y="35" width="1" height="1"/><rect class="cls-8" x="117" y="81" width="10" height="8" rx="1" transform="translate(207 -37) rotate(90)"/><path class="cls-9" d="M125,81v8h-6V81h6m0-1h-6a.99943.99943,0,0,0-1,1v8a.99943.99943,0,0,0,1,1h6a.99943.99943,0,0,0,1-1V81a.99943.99943,0,0,0-1-1Z"/><rect class="cls-6" x="119" y="81" width="6" height="8"/><path class="cls-7" d="M124,82v6h-4V82h4m1-1h-6v8h6V81Z"/><rect class="cls-6" x="8" y="81" width="6" height="8"/><path class="cls-7" d="M13,82v6H9V82h4m1-1H8v8h6V81Z"/><path class="cls-10" d="M148,26V97H38V26H148m1-1H37V98H149V25Z"/></svg>